HIERARCHY
ROOT pelvis
{
  OFFSET 0 100 0
  CHANNELS 6 Xposition Yposition Zposition Zrotation Xrotation Yrotation
  JOINT pelvis_right_femur
  {
    OFFSET -10.78128 -3.44521 -0.5502486
    CHANNELS 3 Zrotation Xrotation Yrotation
    JOINT right_femur_tibia
    {
      OFFSET -0.8047443 -44.0398 -0.1307829
      CHANNELS 3 Zrotation Xrotation Yrotation
      JOINT right_tibia_foot
      {
        OFFSET 3.006224 -47.83518 -5
        CHANNELS 3 Zrotation Xrotation Yrotation
        End Site
        {
          OFFSET 0 -5 15
        }
      }
    }
  }
  JOINT pelvis_left_femur
  {
    OFFSET 10.78128 -3.44521 -0.5502486
    CHANNELS 3 Zrotation Xrotation Yrotation
    JOINT left_femur_tibia
    {
      OFFSET 0.8047443 -44.0398 -0.1307829
      CHANNELS 3 Zrotation Xrotation Yrotation
      JOINT left_tibia_foot
      {
        OFFSET -4.370144 -48.10324 -4.275266
        CHANNELS 3 Zrotation Xrotation Yrotation
        End Site
        {
          OFFSET 0 -5 15
        }
      }
    }
  }
  JOINT pelvis_spine1
  {
    OFFSET 0 6.468898 -3.129235
    CHANNELS 3 Zrotation Xrotation Yrotation
    JOINT spine1
    {
      OFFSET 0 23.15396 4.99043
      CHANNELS 3 Zrotation Xrotation Yrotation
      JOINT spine2
      {
        OFFSET 0 20.79997 -5.064912
        CHANNELS 3 Zrotation Xrotation Yrotation
        JOINT neck
        {
          OFFSET 0 14.38658 9.616178
          CHANNELS 3 Zrotation Xrotation Yrotation
          End Site
          {
            OFFSET 0 20 0
          }
        }
      }
      JOINT right_manubrium
      {
        OFFSET -5.722621 16.35077 3.967754
        CHANNELS 3 Zrotation Xrotation Yrotation
        JOINT right_clavicle
        {
          OFFSET -13.16364 1.694482 -4.693211
          CHANNELS 3 Zrotation Xrotation Yrotation
          JOINT right_humerus
          {
            OFFSET -28.5034 -0.3100689 -2.792744
            CHANNELS 3 Zrotation Xrotation Yrotation
            JOINT right_radius
            {
              OFFSET -25.15693 0.02248979 -1.271978
              CHANNELS 3 Zrotation Xrotation Yrotation
              End Site
              {
                OFFSET -15 0 0
              }
            }
          }
        }
      }
      JOINT left_manubrium
      {
        OFFSET 5.722621 16.35077 3.967754
        CHANNELS 3 Zrotation Xrotation Yrotation
        JOINT left_clavicle
        {
          OFFSET 13.16364 1.694482 -4.693211
          CHANNELS 3 Zrotation Xrotation Yrotation
          JOINT left_humerus
          {
            OFFSET 29.39168 -1.063119 -2.237045
            CHANNELS 3 Zrotation Xrotation Yrotation
            JOINT left_radius
            {
              OFFSET 24.59957 -0.9528479 0.9047498
              CHANNELS 3 Zrotation Xrotation Yrotation
              End Site
              {
                OFFSET 15 -0 -0
              }
            }
          }
        }
      }
    }
  }
}
MOTION
Frames: 21
Frame Time: 0.0416666666667
0 103.5113 0 0.695103 -2.538493 -0.02458839 3.632586 -15.89578 8.020375 -0 39.17286 -0 -6.434466 -17.56575 -4.856812 -5.989192 14.74996 -25.64367 -0 5.34569 -0 0.006572219 -20.12984 23.33362 -3.261562 -2.723263 2.833521 2.075759 7.619711 -7.611857 0.7603009 23.82128 7.923242 3.895971 -22.209 8.769464 6.325367 -18.44848 11.18493 86.83523 36.30535 -21.41089 -0 0 15.10203 -7.169438 8.113398 4.406348 4.555325 -18.53675 -3.339084 -99.04705 40.56693 26.32417 0 0 -20.10911 -9.866468 17.41591 25.22923
0.03904473 103.0733 1.250252 0.5227408 -2.430774 -0.05634603 3.788738 -16.68478 7.859288 -0 39.25207 -0 -6.610565 -16.25132 -4.76156 -5.929146 14.47687 -25.03957 -0 5.445214 -0 -0.07108062 -20.45403 23.08009 -3.110352 -2.586739 2.882304 1.98977 7.741101 -7.62372 0.7932822 23.67953 7.940132 3.981143 -22.38339 8.747059 6.186032 -18.50311 11.1554 86.99989 36.16615 -21.37626 -0 0 15.04105 -7.513912 8.27241 4.519889 4.713074 -18.81843 -3.363102 -98.78163 40.17497 26.21298 0 0 -20.28725 -9.451865 17.38878 24.9917
0.1082101 102.6141 3.084033 -0.02851085 -1.98076 0.02461971 4.311362 -19.75269 7.227413 -0 38.55053 -0 -7.457392 -11.35267 -4.469422 -5.689612 13.59229 -22.66506 -0 6.017842 -0 -0.3217126 -21.72514 21.95696 -2.638247 -2.071109 3.042719 1.800478 8.163435 -7.738712 0.9520371 23.133 7.791614 4.190845 -23.16721 8.534434 5.525475 -18.76442 11.02947 87.6475 35.09519 -21.32895 -0 0 14.73742 -8.521488 8.268769 4.945541 5.18844 -19.83763 -3.446427 -97.66657 38.58851 25.67494 0 0 -20.91035 -7.811876 16.99824 23.98224
0.1532503 102.0746 5.233761 -0.3975644 -1.192218 0.1495114 4.86467 -22.7211 6.935929 -0 35.6191 -0 -8.075756 -9.219996 -4.369557 -5.442887 13.48653 -21.44884 -0 6.592073 -0 -0.5421453 -22.89775 21.1795 -2.374502 -1.70883 3.111534 1.898414 8.097119 -7.95226 1.082693 22.76093 7.623761 4.31071 -23.91569 8.414478 5.232467 -18.7567 10.87417 87.90754 34.7458 -21.57474 -0 0 14.41553 -8.459486 7.955193 4.905027 5.52869 -20.39687 -3.304946 -97.111 37.89636 25.21934 0 0 -21.43332 -6.870923 16.88469 23.3888
0.1517734 101.4356 7.627004 -0.7146856 0.1055451 0.2797109 5.518853 -26.1216 6.737123 -0 30.85207 -0 -8.430161 -8.272898 -4.277542 -5.207129 13.78265 -20.75744 -0 7.299345 -0 -0.8205945 -24.1291 20.39648 -2.229509 -1.386813 3.117143 2.188963 7.697725 -8.263555 1.165268 22.36922 7.561643 4.467962 -24.7643 8.396703 5.316707 -18.44916 10.72121 87.84529 35.31008 -22.0042 -0 0 13.9968 -7.972025 7.833823 4.715768 5.865526 -20.70879 -2.953705 -96.68731 37.5238 24.62926 0 0 -21.92836 -6.146799 16.97132 22.81066
0.1010672 100.717 10.26847 -0.9940167 1.824682 0.4176087 6.229952 -29.6026 6.572813 -0 25.14539 -0 -8.44118 -7.89616 -4.101779 -5.010279 14.30754 -20.44502 -0 8.270856 -0 -1.204211 -25.19013 19.46851 -2.172124 -1.114572 3.047371 2.604482 7.082724 -8.613912 1.193583 21.90925 7.627367 4.662227 -25.68399 8.488112 5.762338 -17.86603 10.60577 87.47633 36.68755 -22.45135 -0 0 13.53887 -7.347801 8.072042 4.561606 6.167723 -20.73036 -2.427888 -96.28083 37.17065 23.94114 0 0 -22.19639 -5.455324 17.15567 22.0586
0.01267937 99.96775 13.23512 -1.277937 3.88495 0.5889752 6.995615 -32.96265 6.392708 -0 19.14188 -0 -8.016946 -7.638388 -3.772434 -4.832528 15.00187 -20.4001 -0 9.660527 -0 -1.84867 -25.86826 18.2188 -2.126193 -0.8913409 2.878482 3.082558 6.339323 -8.959689 1.159079 21.33894 7.861913 4.90389 -26.62249 8.704949 6.55686 -17.01086 10.5445 86.83388 38.79891 -22.81785 -0 0 13.07928 -6.844477 8.868741 4.571566 6.425787 -20.4431 -1.774123 -95.80396 36.64133 23.16746 0 0 -22.1637 -4.716932 17.34563 21.06883
-0.0915636 99.25844 16.65678 -1.624618 6.135875 0.8309113 7.82911 -35.90716 6.189587 -0 13.57079 -0 -7.081617 -7.22187 -3.255182 -4.628283 15.83735 -20.57939 -0 11.69421 -0 -2.930139 -25.86399 16.52316 -1.977106 -0.7365392 2.591786 3.541429 5.561147 -9.246325 1.066061 20.64767 8.294752 5.192556 -27.47694 9.068745 7.672025 -15.90751 10.54075 85.96528 41.52819 -23.01526 -0 0 12.67996 -6.702008 10.43824 4.826609 6.624344 -19.832 -1.062727 -95.24231 35.82431 22.38653 0 0 -21.79078 -3.938113 17.51188 19.89012
-0.1820351 98.676 20.70226 -2.101847 8.320853 1.175809 8.740542 -38.02006 5.97506 -0 9.28285 -0 -5.616884 -6.452676 -2.57517 -4.332269 16.74201 -20.91352 -0 14.70505 -0 -4.585833 -24.79297 14.34326 -1.579909 -0.686583 2.190904 3.877137 4.879184 -9.416971 0.9324771 19.85778 8.923655 5.506104 -28.09777 9.579608 9.030284 -14.62985 10.59189 84.95959 44.6395 -22.97297 -0 0 12.41263 -7.203352 12.97531 5.400197 6.737473 -18.92894 -0.403061 -94.61603 34.65164 21.7255 0 0 -21.08866 -3.183385 17.67094 18.67246
-0.2240582 98.32171 25.54482 -2.759069 10.07378 1.620863 9.717142 -38.78307 5.775651 -0 7.150228 -0 -3.716041 -5.278524 -1.841659 -3.882506 17.52859 -21.24632 -0 19.11529 -0 -6.803808 -22.25524 11.81506 -0.7977402 -0.7883253 1.728909 3.983213 4.466206 -9.432794 0.7832659 19.03409 9.691781 5.789151 -28.31974 10.18579 10.48304 -13.32933 10.70124 83.97132 47.72819 -22.68115 -0 0 12.3388 -8.642111 16.53978 6.374228 6.726958 -17.85477 0.06494575 -93.97011 33.1097 21.34351 0 0 -20.14265 -2.54865 17.86598 17.64606
-0.1825594 98.31262 31.29842 -3.572404 11.00047 2.085847 10.69466 -37.72487 5.622431 -0 7.716282 -0 -1.623473 -3.875721 -1.223564 -3.271956 17.84141 -21.28655 -0 25.34206 -0 -9.340638 -18.02791 9.278504 0.4155232 -1.068853 1.337397 3.801296 4.506211 -9.303548 0.629735 18.27849 10.47943 5.964205 -28.03931 10.75593 11.81828 -12.23439 10.89521 83.23563 50.25452 -22.26901 -0 0 12.4643 -11.1955 20.8729 7.826679 6.549633 -16.85405 0.2090532 -93.34936 31.26538 21.36859 0 0 -19.16421 -2.108802 18.08403 17.04732
-0.03224639 98.7784 37.93397 -4.387069 10.84949 2.392831 11.5289 -34.66075 5.541309 -0 10.69814 -0 0.2765155 -2.666665 -0.8496088 -2.610033 17.15746 -20.6433 -0 33.63047 -0 -11.75356 -12.33408 7.170407 1.910537 -1.479534 1.23446 3.379805 5.123123 -9.09664 0.4502175 17.70558 11.12699 5.981854 -27.30418 11.08573 12.81873 -11.59358 11.22706 83.01521 51.7171 -22.02457 -0 0 12.69163 -14.68808 25.25242 9.719577 6.176491 -16.27088 -0.03372174 -92.77315 29.29197 21.80789 0 0 -18.52452 -1.845657 18.13272 16.98703
0.2235625 99.82764 45.21694 -4.91489 9.669883 2.323649 11.98604 -29.84414 5.5385 -0 14.71556 -0 1.549205 -2.149871 -0.6972518 -2.120272 14.85771 -19.0011 -0 43.85892 -0 -13.53794 -5.998411 5.840415 3.293929 -1.848548 1.674738 2.878936 6.295047 -8.887165 0.2034085 17.41734 11.4895 5.883744 -26.32035 10.96391 13.35561 -11.56273 11.7435 83.39967 51.92458 -22.1966 -0 0 12.82244 -18.38035 28.61417 11.692 5.622954 -16.42056 -0.6107376 -92.23025 27.45332 22.48306 0 0 -18.66756 -1.597439 17.61269 17.32233
0.5330274 101.4647 52.72294 -4.825634 7.797556 1.752648 11.78354 -23.84931 5.566788 -0 17.67752 -0 1.8767 -2.597866 -0.5995637 -2.00744 10.35797 -16.36119 -0 55.29174 -0 -14.26362 -0.3034217 5.475738 4.022692 -1.914238 2.828105 2.47463 7.808229 -8.664083 -0.1169351 17.49918 11.49538 5.805656 -25.32003 10.28337 13.44521 -12.10108 12.42262 84.06475 51.18403 -22.63036 -0 0 12.66015 -21.16886 30.03104 13.07369 4.981093 -17.39278 -1.360805 -91.6987 26.0081 23.05012 0 0 -19.83579 -1.108898 16.14117 17.65371
0.7997016 103.493 59.95889 -3.918837 5.657315 0.7507838 10.72627 -17.28547 5.497203 -0 17.80677 -0 1.237876 -3.880807 -0.3928472 -2.252014 3.359734 -13.11234 -0 66.18163 -0 -13.69469 3.431822 6.168157 3.654301 -1.472409 4.631598 2.222555 9.299855 -8.295166 -0.4373457 18.00834 11.16826 5.87924 -24.39913 9.134419 13.18515 -12.98605 13.13798 84.30342 50.15997 -22.62145 -0 0 12.19839 -22.42252 29.20728 13.45388 4.42194 -18.9233 -2.0681 -91.15919 25.06221 23.12509 0 0 -21.76414 -0.2265689 13.71822 17.52563
0.9323832 105.4891 66.55317 -2.323363 3.554003 -0.4398917 8.919417 -10.62492 5.171796 -0 14.73116 -0 -0.02531942 -5.614732 -0.07441836 -2.502019 -5.689829 -9.77821 -0 73.46222 -0 -11.94224 4.378711 7.944793 2.168407 -0.5481277 6.700257 2.022834 10.39354 -7.639415 -0.6288831 18.90421 10.58103 6.075425 -23.49675 7.800953 12.57769 -14.0028 13.692 83.38392 49.26537 -21.19646 -0 0 11.80068 -22.63762 26.5843 13.21666 4.122883 -20.4479 -2.534801 -90.59819 24.49384 22.5112 0 0 -23.65739 0.8787321 10.86864 16.74751
0.9207918 106.9069 72.42259 -0.5843171 1.586026 -1.550569 6.879235 -4.174418 4.552515 -0 9.921434 -0 -1.320455 -7.543909 0.1472694 -2.184435 -15.20714 -6.667529 -0 73.41345 -0 -9.564263 2.640429 10.63377 0.1661965 0.5647745 8.399407 1.726414 10.86554 -6.716304 -0.577948 19.9742 9.758481 6.105367 -22.50574 6.64189 11.39535 -15.18403 13.89799 81.09659 47.91072 -17.74959 -0 0 12.21336 -22.92033 23.06363 13.18778 4.134584 -21.31044 -2.665838 -90.07895 24.06176 21.47811 0 0 -24.5198 1.689654 8.391244 15.62867
0.8654836 107.2909 77.80892 0.5701565 -0.3030152 -2.442187 5.304328 1.963412 3.83698 -0 5.925618 -0 -2.040821 -9.801562 -0.009689189 -0.8891414 -22.89949 -3.90923 -0 63.92081 -0 -7.426668 -0.6782298 13.70602 -1.35378 1.446652 9.17202 1.261189 10.73809 -5.709643 -0.2391949 20.89369 8.657348 5.560696 -21.36988 5.939882 9.321649 -16.79727 13.65709 78.3741 44.64223 -12.876 -0 0 14.22299 -23.87687 19.53729 13.83856 4.326015 -21.03539 -2.522529 -89.87663 23.6286 20.8504 0 0 -23.57717 1.637524 6.911275 14.87591
0.9067724 106.4849 83.13945 0.7468155 -2.135721 -3.163737 4.557932 7.823181 3.355171 -0 4.600918 -0 -1.847843 -12.66412 -0.5689349 1.091353 -27.23407 -1.892398 -0 46.98109 -0 -6.273004 -4.01962 16.42247 -1.703214 1.774912 8.987008 0.6663399 10.22403 -4.778164 0.3345134 21.43452 7.335373 4.325799 -20.13767 5.802442 6.381639 -18.94762 12.99551 76.87888 38.75544 -8.21995 -0 0 17.96369 -25.1704 16.52895 14.94866 4.525263 -19.59899 -2.259814 -90.41374 23.25801 21.52773 0 0 -20.63793 0.5737256 6.51289 15.0332
1.113827 104.6973 88.7995 0.193416 -3.721644 -3.859252 4.377087 13.25857 3.27687 -0 5.909358 -0 -0.8840045 -15.88928 -1.135875 2.829219 -28.57499 -1.178344 -0 28.48269 -0 -6.241921 -6.25665 18.30791 -1.063308 1.51514 8.398503 0.04843176 9.572619 -3.947944 0.991624 21.62504 6.09404 2.833478 -18.99049 6.126296 3.20857 -21.22456 12.07708 77.16293 31.63289 -4.85255 -0 0 22.45117 -26.08563 14.18278 15.91585 4.68567 -17.52689 -1.996425 -91.84484 23.05529 23.6249 0 0 -16.34135 -0.9956204 6.759635 15.9148
1.458812 102.3878 94.97523 -0.4791844 -4.767926 -4.602444 4.189945 17.75951 3.4825 -0 8.634408 -0 0.2851155 -18.42627 -1.289724 3.613769 -28.46934 -1.743034 -0 14.57074 -0 -6.797804 -7.179764 19.40655 -0.2188647 0.9296855 8.01409 -0.4865729 8.974869 -3.219641 1.560798 21.67429 5.284664 1.737476 -18.16362 6.644172 0.7043985 -22.93268 11.17316 78.28403 25.7671 -2.814877 -0 0 26.07443 -26.32885 12.45004 16.32705 4.832678 -15.60893 -1.775423 -93.71571 23.00379 26.22996 0 0 -11.95132 -2.242617 7.148872 16.76689
